<svg viewBox="0 0 21 21" xmlns="http://www.w3.org/2000/svg" xmlns:serif="http://www.serif.com/" fill-rule="evenodd" clip-rule="evenodd" stroke-linejoin="round" stroke-miterlimit="1.414"><path serif:id="Instagram Icon" d="M16.656 19.91H3.704A2.944 2.944 0 0 1 .76 16.966V4.014A2.944 2.944 0 0 1 3.704 1.07h12.952A2.944 2.944 0 0 1 19.6 4.014v12.952a2.944 2.944 0 0 1-2.944 2.944zM10.18 7.35a3.14 3.14 0 1 0 0 6.28 3.14 3.14 0 0 0 0-6.28zm7.065-2.747c0-.651-.527-1.178-1.177-1.178h-.785c-.651 0-1.178.527-1.178 1.178v.784c0 .651.527 1.178 1.178 1.178h.785c.65 0 1.177-.527 1.177-1.178v-.784zm0 4.317H15.42c.15.5.255 1.021.255 1.57a5.495 5.495 0 0 1-10.99 0c0-.549.105-1.07.255-1.57H3.115v7.458c0 .65.527 1.177 1.177 1.177h11.776c.65 0 1.177-.527 1.177-1.177V8.92z" fill="#fff" stroke="#fff"/></svg>