<?xml version="1.0" encoding="UTF-8" standalone="no"?><!DOCTYPE svg PUBLIC "-//W3C//DTD SVG 1.1//EN" "http://www.w3.org/Graphics/SVG/1.1/DTD/svg11.dtd"><svg width="100%" height="100%" viewBox="0 0 21 21" version="1.1" xmlns="http://www.w3.org/2000/svg" xmlns:xlink="http://www.w3.org/1999/xlink" xml:space="preserve" xmlns:serif="http://www.serif.com/" style="fill-rule:evenodd;clip-rule:evenodd;stroke-linejoin:round;stroke-miterlimit:1.41421;"><path id="Instagram-Icon" serif:id="Instagram Icon" d="M16.656,19.91l-12.952,0c-1.626,0 -2.944,-1.318 -2.944,-2.944l0,-12.952c0,-1.626 1.318,-2.944 2.944,-2.944l12.952,0c1.626,0 2.944,1.318 2.944,2.944l0,12.952c0,1.626 -1.318,2.944 -2.944,2.944Zm-6.476,-12.56c-1.734,0 -3.14,1.406 -3.14,3.14c0,1.734 1.406,3.14 3.14,3.14c1.734,0 3.14,-1.406 3.14,-3.14c0,-1.734 -1.406,-3.14 -3.14,-3.14Zm7.065,-2.747c0,-0.651 -0.527,-1.178 -1.177,-1.178l-0.785,0c-0.651,0 -1.178,0.527 -1.178,1.178l0,0.784c0,0.651 0.527,1.178 1.178,1.178l0.785,0c0.65,0 1.177,-0.527 1.177,-1.178l0,-0.784Zm0,4.317l-1.825,0c0.15,0.5 0.255,1.021 0.255,1.57c0,3.034 -2.46,5.495 -5.495,5.495c-3.035,0 -5.495,-2.461 -5.495,-5.495c0,-0.549 0.105,-1.07 0.255,-1.57l-1.825,0l0,7.458c0,0.65 0.527,1.177 1.177,1.177l11.776,0c0.65,0 1.177,-0.527 1.177,-1.177l0,-7.458Z" style="fill:#fff;stroke:#fff;stroke-width:1px;"/></svg>