<?xml version="1.0" encoding="UTF-8" standalone="no"?><!DOCTYPE svg PUBLIC "-//W3C//DTD SVG 1.1//EN" "http://www.w3.org/Graphics/SVG/1.1/DTD/svg11.dtd"><svg width="100%" height="100%" viewBox="0 0 21 18" version="1.1" xmlns="http://www.w3.org/2000/svg" xmlns:xlink="http://www.w3.org/1999/xlink" xml:space="preserve" xmlns:serif="http://www.serif.com/" style="fill-rule:evenodd;clip-rule:evenodd;stroke-linejoin:round;stroke-miterlimit:1.41421;"><path id="Twitter-Icon" serif:id="Twitter Icon" d="M17.64,5.114c0.007,0.17 0.01,0.341 0.01,0.513c0,5.24 -3.885,11.283 -10.99,11.283c-2.182,0 -4.211,-0.655 -5.921,-1.783c0.302,0.038 0.609,0.055 0.921,0.055c1.81,0 3.476,-0.632 4.798,-1.697c-1.69,-0.03 -3.117,-1.178 -3.61,-2.753c0.237,0.047 0.48,0.072 0.729,0.072c0.351,0 0.691,-0.049 1.018,-0.139c-1.768,-0.365 -3.101,-1.968 -3.101,-3.888c0,-0.02 0,-0.035 0,-0.05c0.522,0.295 1.118,0.475 1.752,0.495c-1.038,-0.713 -1.72,-1.925 -1.72,-3.3c0,-0.728 0.19,-1.407 0.524,-1.995c1.904,2.4 4.752,3.977 7.962,4.145c-0.066,-0.29 -0.1,-0.595 -0.1,-0.905c0,-2.19 1.729,-3.965 3.863,-3.965c1.11,0 2.114,0.482 2.818,1.253c0.881,-0.178 1.707,-0.508 2.455,-0.963c-0.29,0.925 -0.901,1.702 -1.7,2.193c0.781,-0.093 1.527,-0.308 2.219,-0.623c-0.519,0.795 -1.172,1.492 -1.927,2.052Z" style="fill:#fff;stroke:#fff;stroke-width:1px;"/></svg>