<svg viewBox="0 0 21 18" xmlns="http://www.w3.org/2000/svg" xmlns:serif="http://www.serif.com/" fill-rule="evenodd" clip-rule="evenodd" stroke-linejoin="round" stroke-miterlimit="1.414"><path serif:id="Twitter Icon" d="M17.64 5.114c.007.17.01.341.01.513 0 5.24-3.885 11.283-10.99 11.283-2.182 0-4.211-.655-5.921-1.783a7.617 7.617 0 0 0 5.719-1.642c-1.69-.03-3.117-1.178-3.61-2.753a3.74 3.74 0 0 0 1.747-.067C2.827 10.3 1.494 8.697 1.494 6.777v-.05a3.799 3.799 0 0 0 1.752.495 3.992 3.992 0 0 1-1.72-3.3c0-.728.19-1.407.524-1.995 1.904 2.4 4.752 3.977 7.962 4.145-.066-.29-.1-.595-.1-.905 0-2.19 1.729-3.965 3.863-3.965 1.11 0 2.114.482 2.818 1.253a7.622 7.622 0 0 0 2.455-.963 3.966 3.966 0 0 1-1.7 2.193 7.49 7.49 0 0 0 2.219-.623 7.997 7.997 0 0 1-1.927 2.052z" fill="#fff" stroke="#fff"/></svg>